<?xml version="1.0" standalone="no"?>
<!DOCTYPE svg PUBLIC "-//W3C//DTD SVG 20010904//EN"
 "http://www.w3.org/TR/2001/REC-SVG-20010904/DTD/svg10.dtd">
<svg version="1.0" xmlns="http://www.w3.org/2000/svg"
 width="64.000000pt" height="64.000000pt" viewBox="0 0 64.000000 64.000000"
 preserveAspectRatio="xMidYMid meet">

<g transform="translate(0.000000,64.000000) scale(0.100000,-0.100000)"
fill="#000000" stroke="none">
<path d="M167 634 c-4 -4 -7 -24 -7 -44 0 -34 -3 -38 -62 -68 -35 -17 -71 -34
-81 -37 -28 -8 -18 -49 12 -53 14 -2 28 2 33 11 4 8 33 29 63 46 l55 31 65
-37 65 -37 0 -54 c0 -46 3 -53 18 -50 13 2 18 15 20 55 l3 53 60 35 c57 33 61
34 89 20 63 -33 86 -2 25 34 -31 18 -35 25 -35 61 0 34 -3 41 -17 38 -13 -2
-19 -15 -21 -44 -3 -37 -7 -43 -58 -72 -31 -18 -60 -32 -66 -32 -6 0 -37 14
-69 32 -54 30 -58 35 -61 72 -3 37 -16 55 -31 40z"/>
<path d="M17 403 c-4 -3 -7 -32 -7 -64 l0 -58 78 -45 c42 -25 83 -46 91 -46 7
0 38 14 68 31 29 17 66 34 81 38 20 6 27 14 27 32 0 31 -30 37 -58 12 -12 -11
-43 -32 -69 -47 l-48 -27 -65 38 -65 37 0 53 c0 38 -4 53 -13 53 -8 0 -17 -3
-20 -7z"/>
<path d="M465 339 c-43 -40 -57 -69 -34 -69 6 0 29 16 50 35 44 39 77 44 104
15 24 -27 14 -57 -35 -105 l-40 -39 -48 47 c-26 26 -52 47 -58 47 -6 0 -39
-29 -72 -64 -67 -69 -74 -93 -47 -146 19 -36 70 -55 111 -40 33 13 208 182
230 222 22 42 17 76 -15 109 -44 44 -89 40 -146 -12z m-22 -157 l37 -38 -43
-41 c-54 -52 -80 -60 -106 -34 -12 12 -21 30 -21 41 0 19 74 110 89 110 4 0
24 -17 44 -38z"/>
<path d="M158 110 c-1 -33 -2 -70 -2 -82 -1 -18 5 -23 24 -23 19 0 25 5 24 23
0 12 -1 49 -2 82 -2 53 -4 60 -22 60 -18 0 -20 -7 -22 -60z"/>
</g>
</svg>
