<?xml version="1.0" standalone="no"?>
<!DOCTYPE svg PUBLIC "-//W3C//DTD SVG 20010904//EN"
 "http://www.w3.org/TR/2001/REC-SVG-20010904/DTD/svg10.dtd">
<svg version="1.0" xmlns="http://www.w3.org/2000/svg"
 width="64.000000pt" height="64.000000pt" viewBox="0 0 64.000000 64.000000"
 preserveAspectRatio="xMidYMid meet">

<g transform="translate(0.000000,64.000000) scale(0.100000,-0.100000)"
fill="#000000" stroke="none">
<path d="M134 606 c-10 -26 4 -48 28 -44 33 4 33 52 0 56 -13 2 -25 -3 -28
-12z m36 -16 c0 -5 -4 -10 -10 -10 -5 0 -10 5 -10 10 0 6 5 10 10 10 6 0 10
-4 10 -10z"/>
<path d="M564 596 c-10 -26 4 -48 28 -44 33 4 33 52 0 56 -13 2 -25 -3 -28
-12z m36 -16 c0 -5 -4 -10 -10 -10 -5 0 -10 5 -10 10 0 6 5 10 10 10 6 0 10
-4 10 -10z"/>
<path d="M320 590 c0 -5 5 -10 10 -10 6 0 10 5 10 10 0 6 -4 10 -10 10 -5 0
-10 -4 -10 -10z"/>
<path d="M480 590 c0 -5 5 -10 10 -10 6 0 10 5 10 10 0 6 -4 10 -10 10 -5 0
-10 -4 -10 -10z"/>
<path d="M384 556 c-10 -26 4 -48 28 -44 33 4 33 52 0 56 -13 2 -25 -3 -28
-12z m36 -16 c0 -5 -4 -10 -10 -10 -5 0 -10 5 -10 10 0 6 5 10 10 10 6 0 10
-4 10 -10z"/>
<path d="M50 530 c0 -5 5 -10 10 -10 6 0 10 5 10 10 0 6 -4 10 -10 10 -5 0
-10 -4 -10 -10z"/>
<path d="M230 530 c0 -5 5 -10 10 -10 6 0 10 5 10 10 0 6 -4 10 -10 10 -5 0
-10 -4 -10 -10z"/>
<path d="M292 527 c-7 -7 -9 -29 -6 -49 4 -21 2 -38 -5 -42 -14 -9 -15 -63 -1
-71 14 -9 12 -38 -4 -70 l-14 -27 1 36 c1 24 -6 43 -21 59 -15 15 -22 36 -22
61 0 41 -38 90 -67 84 -28 -5 -40 -35 -24 -60 8 -13 15 -40 16 -61 2 -23 11
-47 24 -61 13 -14 21 -35 21 -57 0 -19 5 -40 12 -47 8 -8 8 -12 1 -12 -15 0
-29 20 -37 52 -4 16 -18 34 -34 42 -16 8 -34 22 -41 30 -19 23 -58 20 -66 -4
-10 -31 3 -59 36 -75 16 -9 37 -33 48 -55 21 -44 16 -50 -19 -20 -28 24 -43
25 -60 5 -11 -13 -10 -22 3 -50 15 -32 27 -39 81 -47 10 -2 25 -13 34 -26 14
-22 14 -22 -32 -22 -25 0 -46 -4 -46 -10 0 -6 90 -10 250 -10 160 0 250 4 250
10 0 6 -21 10 -46 10 -46 0 -46 0 -32 22 9 13 24 24 34 26 54 8 66 15 81 47
13 28 14 37 3 50 -17 20 -32 19 -60 -5 -35 -30 -40 -24 -19 20 11 22 32 46 48
55 33 16 46 44 36 75 -8 24 -47 27 -66 4 -7 -8 -25 -22 -41 -30 -16 -8 -30
-26 -34 -42 -8 -32 -22 -52 -37 -52 -7 0 -7 4 1 12 7 7 12 28 12 47 0 22 8 43
21 57 13 14 22 38 24 61 1 21 8 48 16 61 16 25 4 55 -24 60 -28 6 -67 -43 -67
-84 0 -23 -8 -46 -23 -64 l-24 -28 -12 34 c-10 27 -10 41 0 69 11 29 10 40 -4
70 -17 37 -45 46 -65 22z m53 -41 c6 -19 6 -33 -3 -46 -15 -24 -16 -66 -2 -75
6 -3 10 -17 10 -30 0 -13 -4 -27 -10 -30 -5 -3 -10 -19 -10 -35 0 -16 5 -32
10 -35 6 -3 10 -17 10 -30 0 -13 -4 -27 -10 -30 -13 -8 -13 -58 1 -72 17 -17
7 -58 -16 -61 -21 -3 -25 14 -25 98 0 17 0 46 0 65 0 19 0 49 0 65 0 17 0 46
0 65 0 19 0 50 0 68 0 27 4 73 9 110 2 18 26 -1 36 -27z m-163 -13 c11 -10 18
-30 18 -53 0 -23 8 -48 21 -65 13 -15 23 -44 24 -66 2 -26 11 -49 26 -65 20
-21 21 -28 11 -44 -7 -11 -12 -30 -12 -42 0 -19 -2 -20 -10 -8 -5 8 -10 27
-10 43 0 15 -9 35 -20 44 -14 12 -20 30 -20 56 0 27 -8 48 -26 70 -17 20 -24
37 -20 51 3 12 -1 34 -9 50 -8 16 -15 32 -15 37 0 14 22 10 42 -8z m318 8 c0
-5 -7 -21 -15 -37 -8 -16 -12 -38 -9 -50 4 -14 -3 -31 -20 -51 -17 -20 -26
-43 -26 -65 0 -21 -8 -45 -20 -58 -11 -13 -20 -33 -20 -46 0 -12 -3 -29 -6
-38 -7 -19 -34 -22 -34 -4 0 15 19 72 37 116 8 18 12 41 9 50 -4 11 4 32 19
52 15 21 25 47 25 69 0 19 7 43 17 53 17 19 43 24 43 9z m-418 -168 c10 -9 28
-21 40 -27 12 -6 26 -26 30 -43 6 -21 19 -38 38 -48 17 -9 36 -31 44 -50 8
-19 24 -40 35 -47 12 -7 21 -21 21 -30 0 -22 1 -22 -39 -2 -20 10 -37 30 -47
54 -8 20 -26 42 -39 48 -14 6 -33 28 -42 49 -10 21 -29 43 -42 49 -26 13 -41
32 -41 52 0 17 20 15 42 -5z m518 5 c0 -20 -15 -39 -41 -52 -13 -6 -32 -28
-42 -49 -9 -21 -28 -43 -42 -49 -13 -6 -31 -28 -40 -50 -8 -22 -25 -42 -38
-47 -30 -12 -34 11 -8 45 12 15 21 33 21 41 0 7 16 23 35 34 23 14 38 32 43
52 5 19 18 37 34 44 14 7 31 20 38 28 15 18 40 20 40 3z m-225 -47 c-3 -12
-11 -21 -16 -21 -10 0 -12 21 -3 45 10 24 27 2 19 -24z m-294 -107 c10 -9 33
-19 51 -23 22 -5 40 -18 56 -41 13 -19 33 -41 45 -48 20 -12 19 -13 -13 -7
-20 3 -46 18 -62 35 -16 18 -37 30 -52 30 -14 0 -34 10 -46 22 -21 23 -24 31
-13 41 9 10 15 9 34 -9z m516 0 c6 -17 -37 -54 -63 -54 -15 0 -36 -12 -52 -30
-16 -17 -42 -32 -62 -35 -32 -6 -33 -5 -13 7 12 7 32 29 45 48 16 23 34 36 57
41 18 4 40 14 49 23 17 17 33 17 39 0z"/>
<path d="M560 500 c0 -5 5 -10 10 -10 6 0 10 5 10 10 0 6 -4 10 -10 10 -5 0
-10 -4 -10 -10z"/>
<path d="M44 436 c-10 -26 4 -48 28 -44 33 4 33 52 0 56 -13 2 -25 -3 -28 -12z
m36 -16 c0 -5 -4 -10 -10 -10 -5 0 -10 5 -10 10 0 6 5 10 10 10 6 0 10 -4 10
-10z"/>
<path d="M534 426 c-10 -26 4 -48 28 -44 33 4 33 52 0 56 -13 2 -25 -3 -28
-12z m36 -16 c0 -5 -4 -10 -10 -10 -5 0 -10 5 -10 10 0 6 5 10 10 10 6 0 10
-4 10 -10z"/>
</g>
</svg>
