<?xml version="1.0" standalone="no"?>
<!DOCTYPE svg PUBLIC "-//W3C//DTD SVG 20010904//EN"
 "http://www.w3.org/TR/2001/REC-SVG-20010904/DTD/svg10.dtd">
<svg version="1.0" xmlns="http://www.w3.org/2000/svg"
 width="64.000000pt" height="64.000000pt" viewBox="0 0 64.000000 64.000000"
 preserveAspectRatio="xMidYMid meet">

<g transform="translate(0.000000,64.000000) scale(0.100000,-0.100000)"
fill="#000000" stroke="none">
<path d="M265 621 c-17 -10 -50 -40 -73 -66 -35 -40 -42 -55 -42 -90 0 -25 7
-52 18 -66 10 -13 24 -43 31 -67 8 -29 20 -47 37 -54 18 -9 24 -18 22 -35 -2
-19 -16 -29 -61 -48 -78 -31 -107 -69 -107 -141 0 -34 0 -34 -45 -34 -25 0
-45 -4 -45 -10 0 -6 113 -10 320 -10 181 0 320 4 320 9 0 12 -26 21 -60 21
-25 0 -28 4 -33 46 -6 57 -42 97 -111 123 -41 15 -52 24 -54 44 -2 19 2 27 18
32 21 7 50 59 50 91 0 9 9 27 20 41 36 45 29 57 -117 216 -21 22 -50 22 -88
-2z m55 -29 c0 -11 -9 -27 -20 -37 -11 -10 -20 -24 -20 -31 0 -22 29 -4 55 35
24 34 25 34 25 11 0 -18 -22 -48 -79 -104 l-79 -79 -17 33 c-23 45 -13 76 48
138 53 53 87 67 87 34z m107 -84 c22 -21 33 -41 33 -60 0 -46 -27 -46 -72 -1
l-41 41 19 26 c11 14 21 26 24 26 2 0 19 -14 37 -32z m-10 -158 c-2 -29 -9
-38 -49 -64 l-48 -29 -47 29 c-68 42 -68 63 -2 130 l53 53 47 -42 c41 -36 47
-47 46 -77z m-60 -132 c7 -15 30 -30 63 -41 75 -26 100 -55 100 -112 0 -42 -2
-46 -22 -43 -19 2 -24 10 -26 43 -4 48 -23 65 -74 65 -56 0 -52 -28 5 -32 41
-3 42 -4 42 -38 l0 -35 -125 0 -125 0 0 35 c0 34 1 35 43 38 56 4 60 32 4 32
-51 0 -70 -17 -74 -65 -2 -33 -7 -41 -26 -43 -20 -3 -22 1 -22 43 0 57 25 86
100 112 33 11 56 26 63 41 7 15 19 22 37 22 18 0 30 -7 37 -22z"/>
<path d="M250 494 c0 -8 5 -12 10 -9 6 4 8 11 5 16 -9 14 -15 11 -15 -7z"/>
<path d="M295 320 c3 -5 15 -10 25 -10 10 0 22 5 25 10 4 6 -7 10 -25 10 -18
0 -29 -4 -25 -10z"/>
<path d="M315 121 c-3 -5 -1 -12 5 -16 5 -3 10 1 10 9 0 18 -6 21 -15 7z"/>
<path d="M105 389 c-17 -18 -18 -24 -6 -52 7 -18 13 -42 12 -55 -1 -15 4 -22
12 -19 7 2 11 17 9 38 -2 19 -3 51 -4 72 0 20 -1 37 -2 37 -2 0 -11 -9 -21
-21z"/>
<path d="M600 391 c-13 -25 -13 -58 0 -66 6 -3 10 -19 10 -36 0 -35 17 -39 26
-5 3 14 -1 34 -10 48 -10 16 -12 28 -6 38 13 19 13 40 0 40 -5 0 -14 -9 -20
-19z"/>
<path d="M8 335 c-8 -18 -8 -32 3 -57 7 -18 12 -41 10 -52 -2 -12 2 -17 11
-14 8 3 12 17 10 39 -2 19 -3 51 -4 72 0 43 -13 48 -30 12z"/>
<path d="M510 341 c-13 -25 -13 -58 0 -66 6 -3 10 -19 10 -36 0 -35 17 -39 26
-5 3 15 -1 34 -12 51 -13 19 -14 29 -5 38 13 13 15 37 1 37 -5 0 -14 -9 -20
-19z"/>
</g>
</svg>
