<?xml version="1.0" standalone="no"?>
<!DOCTYPE svg PUBLIC "-//W3C//DTD SVG 20010904//EN"
 "http://www.w3.org/TR/2001/REC-SVG-20010904/DTD/svg10.dtd">
<svg version="1.0" xmlns="http://www.w3.org/2000/svg"
 width="64.000000pt" height="64.000000pt" viewBox="0 0 64.000000 64.000000"
 preserveAspectRatio="xMidYMid meet">

<g transform="translate(0.000000,64.000000) scale(0.100000,-0.100000)"
fill="#000000" stroke="none">
<path d="M253 623 c-7 -2 -13 -13 -13 -24 0 -21 -55 -55 -65 -39 -13 21 -52 9
-88 -28 -34 -35 -37 -42 -27 -63 15 -34 -2 -76 -32 -81 -21 -3 -23 -8 -23 -68
0 -60 2 -65 23 -68 30 -5 47 -47 32 -81 -10 -21 -7 -28 27 -63 36 -37 75 -49
88 -28 10 16 65 -18 65 -39 0 -23 19 -31 74 -31 45 0 66 13 66 41 0 25 30 28
65 7 36 -22 94 -23 121 -4 17 13 13 14 -36 9 -50 -5 -59 -3 -87 21 -59 49 -53
138 11 177 38 23 67 24 106 4 53 -27 77 -108 45 -151 -17 -22 -19 -34 -5 -34
14 0 40 55 40 87 0 15 -6 40 -14 54 -8 16 -11 46 -8 82 5 60 -7 87 -37 87 -19
0 -45 57 -30 66 22 13 7 53 -32 88 -37 34 -42 36 -62 24 -27 -17 -77 -3 -77
22 0 27 -22 40 -69 39 -26 0 -52 -3 -58 -6z m107 -36 c0 -19 9 -28 42 -40 37
-15 44 -15 58 -2 15 13 20 11 50 -20 29 -30 33 -38 23 -54 -19 -30 12 -101 44
-101 21 0 23 -4 23 -50 0 -46 -10 -63 -24 -41 -3 5 -21 12 -39 15 -32 6 -35
10 -46 62 -20 89 -98 154 -187 154 -31 0 -84 -20 -84 -32 0 -6 8 -7 18 -3 68
27 141 13 189 -38 42 -45 72 -147 43 -147 -23 0 -80 -63 -86 -96 -9 -50 -34
-45 -34 7 0 32 6 47 29 68 51 48 53 110 6 157 -31 31 -45 24 -45 -25 0 -45
-20 -77 -44 -68 -12 5 -16 19 -16 56 0 63 -15 73 -52 32 -40 -45 -39 -101 2
-143 24 -24 30 -38 30 -74 0 -24 -3 -44 -7 -44 -20 0 -69 43 -90 77 -37 62
-27 146 25 206 8 9 11 17 5 17 -28 0 -73 -88 -73 -142 0 -41 30 -106 61 -135
42 -39 97 -56 156 -48 33 4 53 3 53 -3 0 -6 3 -17 6 -25 3 -10 -2 -18 -15 -22
-14 -4 -21 -15 -21 -31 0 -24 -2 -25 -52 -22 -46 3 -53 6 -56 26 -2 15 -15 27
-39 37 -33 14 -38 14 -54 -1 -16 -15 -20 -13 -56 19 -37 34 -37 36 -20 55 18
19 18 22 -3 61 -13 27 -27 41 -40 41 -17 0 -20 7 -20 50 0 43 3 50 20 50 13 0
27 14 40 41 21 39 21 42 3 61 -17 19 -17 21 20 55 36 32 40 34 56 19 16 -15
21 -15 54 -1 24 10 37 22 37 33 0 28 9 32 62 32 44 0 48 -2 48 -23z m-100
-204 c0 -57 46 -93 78 -61 7 7 12 31 12 55 0 48 11 54 34 21 25 -35 20 -76
-13 -109 -24 -24 -31 -40 -33 -82 -3 -48 -5 -52 -30 -55 -28 -3 -28 -3 -28 53
0 50 -3 59 -30 82 -33 27 -41 76 -18 113 19 30 28 24 28 -17z"/>
<path d="M518 211 c-7 -10 -27 -21 -43 -23 -56 -6 -32 -78 26 -78 24 0 80 70
77 95 -4 27 -42 31 -60 6z m43 -18 c-33 -57 -65 -75 -89 -51 -19 19 -14 31 9
25 16 -4 28 1 41 19 23 29 55 34 39 7z"/>
</g>
</svg>
