<?xml version="1.0" standalone="no"?>
<!DOCTYPE svg PUBLIC "-//W3C//DTD SVG 20010904//EN"
 "http://www.w3.org/TR/2001/REC-SVG-20010904/DTD/svg10.dtd">
<svg version="1.0" xmlns="http://www.w3.org/2000/svg"
 width="64.000000pt" height="64.000000pt" viewBox="0 0 64.000000 64.000000"
 preserveAspectRatio="xMidYMid meet">

<g transform="translate(0.000000,64.000000) scale(0.100000,-0.100000)"
fill="#000000" stroke="none">
<path d="M525 590 c-12 -13 -15 -27 -11 -46 10 -36 -32 -99 -71 -107 -36 -7
-83 26 -83 58 0 28 -24 55 -50 55 -26 0 -50 -27 -50 -55 0 -31 -47 -65 -81
-58 -48 9 -78 -47 -43 -81 31 -32 84 -5 84 42 0 28 44 57 89 57 46 1 91 -29
91 -59 0 -26 28 -56 53 -56 29 0 49 31 43 63 -8 38 34 107 63 107 25 0 51 26
51 50 0 24 -26 50 -49 50 -10 0 -26 -9 -36 -20z m60 -30 c0 -18 -6 -26 -23
-28 -13 -2 -25 3 -28 12 -10 26 4 48 28 44 17 -2 23 -10 23 -28z m-250 -60 c0
-18 -6 -26 -23 -28 -13 -2 -25 3 -28 12 -10 26 4 48 28 44 17 -2 23 -10 23
-28z m-140 -110 c0 -18 -6 -26 -23 -28 -24 -4 -38 18 -28 44 3 9 15 14 28 12
17 -2 23 -10 23 -28z m280 0 c0 -18 -6 -26 -23 -28 -24 -4 -38 18 -28 44 3 9
15 14 28 12 17 -2 23 -10 23 -28z"/>
<path d="M69 291 c-39 -39 -41 -44 -36 -87 6 -54 51 -109 83 -102 16 4 15 7
-9 18 -73 35 -74 137 -2 176 30 16 44 16 105 -2 23 -6 24 -6 9 11 -10 9 -38
20 -63 22 -43 5 -48 3 -87 -36z"/>
<path d="M95 265 c-30 -29 -32 -74 -6 -106 24 -30 39 -19 17 13 -9 12 -16 30
-16 40 0 28 37 58 71 58 17 0 28 4 24 10 -12 19 -65 11 -90 -15z"/>
<path d="M215 261 c-45 -20 -70 -60 -70 -112 0 -42 5 -53 33 -81 47 -48 117
-48 164 0 28 28 33 39 33 82 0 42 -5 54 -31 81 -33 33 -92 46 -129 30z m94
-25 c47 -25 63 -83 37 -135 -35 -66 -137 -66 -172 0 -47 91 44 182 135 135z"/>
<path d="M205 205 c-50 -49 -15 -135 55 -135 70 0 105 86 55 135 -15 16 -36
25 -55 25 -19 0 -40 -9 -55 -25z m95 -15 c25 -25 25 -55 0 -80 -11 -11 -29
-20 -40 -20 -26 0 -60 34 -60 60 0 11 9 29 20 40 11 11 29 20 40 20 11 0 29
-9 40 -20z"/>
<path d="M242 188 c-19 -19 -14 -38 11 -48 l22 -9 -22 0 c-27 -1 -30 -16 -7
-25 19 -7 44 10 44 31 0 7 -10 18 -22 23 l-23 9 23 0 c25 1 29 16 6 25 -20 8
-18 8 -32 -6z"/>
<path d="M370 240 c0 -6 41 -10 110 -10 91 0 110 -3 110 -15 0 -12 -17 -15
-95 -15 -57 0 -95 -4 -95 -10 0 -6 32 -10 75 -10 60 0 75 -3 75 -15 0 -12 -15
-15 -75 -15 -43 0 -75 -4 -75 -10 0 -6 38 -10 95 -10 78 0 95 -3 95 -15 0 -12
-18 -15 -100 -15 -60 0 -100 -4 -100 -10 0 -6 40 -10 100 -10 82 0 100 -3 100
-15 0 -12 -20 -15 -120 -15 -76 0 -120 -4 -120 -10 0 -7 45 -10 128 -8 l127 3
3 53 c3 47 1 54 -17 59 -27 7 -27 29 0 36 16 4 20 12 17 34 l-3 28 -117 3
c-76 2 -118 -1 -118 -8z"/>
</g>
</svg>
