<?xml version="1.0" standalone="no"?>
<!DOCTYPE svg PUBLIC "-//W3C//DTD SVG 20010904//EN"
 "http://www.w3.org/TR/2001/REC-SVG-20010904/DTD/svg10.dtd">
<svg version="1.0" xmlns="http://www.w3.org/2000/svg"
 width="64.000000pt" height="64.000000pt" viewBox="0 0 64.000000 64.000000"
 preserveAspectRatio="xMidYMid meet">

<g transform="translate(0.000000,64.000000) scale(0.100000,-0.100000)"
fill="#000000" stroke="none">
<path d="M150 590 c-22 -22 -25 -46 -10 -70 6 -11 1 -30 -20 -67 -32 -57 -34
-63 -22 -63 5 0 21 23 36 50 21 39 33 50 52 50 29 0 64 33 64 60 0 11 -9 29
-20 40 -11 11 -29 20 -40 20 -11 0 -29 -9 -40 -20z m70 -15 c15 -18 10 -45
-12 -59 -35 -22 -74 27 -48 59 16 19 44 19 60 0z"/>
<path d="M406 585 c-20 -21 -32 -25 -80 -25 -31 0 -56 -4 -56 -10 0 -5 25 -10
56 -10 48 0 60 -4 80 -25 13 -14 32 -25 44 -25 26 0 60 34 60 60 0 26 -34 60
-60 60 -12 0 -31 -11 -44 -25z m74 -10 c26 -32 -13 -81 -47 -59 -23 14 -28 41
-13 59 16 19 44 19 60 0z"/>
<path d="M490 473 c0 -3 12 -26 26 -50 23 -40 24 -48 13 -74 -23 -57 28 -107
80 -80 47 25 34 97 -20 108 -22 4 -36 18 -57 54 -24 44 -42 61 -42 42z m120
-128 c15 -18 10 -45 -12 -59 -35 -22 -74 27 -48 59 16 19 44 19 60 0z"/>
<path d="M20 360 c-11 -11 -20 -29 -20 -40 0 -26 34 -60 59 -60 13 0 29 -17
48 -50 15 -27 31 -50 36 -50 12 0 8 11 -19 58 -22 37 -24 48 -15 69 6 13 11
30 11 38 0 22 -37 55 -60 55 -11 0 -29 -9 -40 -20z m70 -15 c26 -32 -13 -81
-47 -59 -23 14 -28 41 -13 59 16 19 44 19 60 0z"/>
<path d="M506 200 c-21 -39 -33 -50 -52 -50 -29 0 -64 -33 -64 -60 0 -26 34
-60 60 -60 42 0 73 54 50 90 -6 11 -1 30 20 67 32 57 34 63 22 63 -5 0 -21
-22 -36 -50z m-26 -85 c26 -32 -13 -81 -47 -59 -23 14 -28 41 -13 59 16 19 44
19 60 0z"/>
<path d="M150 130 c-11 -11 -20 -29 -20 -40 0 -26 34 -60 60 -60 12 0 31 11
44 25 20 21 32 25 80 25 31 0 56 5 56 10 0 6 -25 10 -56 10 -48 0 -60 4 -80
25 -28 30 -57 32 -84 5z m70 -15 c26 -32 -13 -81 -47 -59 -10 6 -19 19 -21 28
-8 38 43 61 68 31z"/>
</g>
</svg>
