<svg xmlns="http://www.w3.org/2000/svg" version="1.0" viewBox="0 0 512 512"><g fill="#aef"><path d="M190.2 80.3c-4.7 1.5-11.6 7.9-14.1 13.2-2.5 5.3-2.8 13.4-.7 19.1.8 2.2 13.6 25.2 28.5 51.3 15 26.1 27 48 26.7 48.7-.2.6-3.5 3.8-7.3 7-4.8 4.2-19.1 12.9-48 29.4-22.7 12.8-41.1 23.5-40.9 23.7.1.2 5-.4 10.7-1.3 13.4-2 48.9-1.4 62.4 1 20.2 3.8 44.5 11.3 65.7 20.5 12.5 5.3 22 10.2 46.8 24.1 16.7 9.4 30 16.3 30 15.6 0-.3-14.2-28.7-31.6-63.3-26.1-51.7-37.5-73.1-64.7-120.8-18.2-31.8-34.6-59.6-36.4-61.6-6.4-7.1-17.4-9.8-27.1-6.6zM368 163.6c-17.2 3.3-32.5 14.9-40 30-10.6 21.5-6.5 45.9 10.5 62.9 21.8 21.8 55 21.8 77.1 0 28.9-28.6 17.6-77-21.2-90.6-5.8-2-21-3.3-26.4-2.3z"/><path d="M148 290.1c-36.1 3.9-68.8 18.3-95 41.8-17.6 15.7-34.7 41.1-44 65.3-4.5 11.7-10.7 38.1-8.2 35.3.5-.6 3.7-4.6 7.3-9 8.6-10.7 27.5-29.5 37.9-37.6 24.5-19.1 50-30.8 75.2-34.5 16.5-2.4 42.8-1.5 59.8 2.1 26.5 5.6 54 16.2 90.5 35 44.4 22.8 74.6 34.1 106.2 39.6 16.9 3 43.5 3.3 56.3.6 22.9-4.8 38.6-12.9 52.5-27.2 20.5-21.1 29.9-56.1 23.4-87.7-1.3-6.2-2.3-6.7-3.4-1.6-.4 1.8-2.7 7.9-5.1 13.5-12.3 29.5-29.8 47.3-51.5 52.7-28.1 6.9-71.3-6.7-134.2-42.2-22.7-12.9-33.2-18.2-47.2-24.2-22.9-9.8-48.5-17.4-69-20.5-12.4-1.9-40.1-2.7-51.5-1.4z"/></g></svg>